<svg width="720" height="280" viewBox="0 0 720 280" fill="none" xmlns="http://www.w3.org/2000/svg">
  <rect width="720" height="280" rx="20" fill="#F8FAFC"/>
  <rect x="48" y="60" width="120" height="60" rx="12" fill="#E0F2FE" stroke="#38BDF8" stroke-width="2"/>
  <text x="70" y="95" fill="#0F172A" font-family="Inter, sans-serif" font-size="14" font-weight="600">Bids</text>

  <rect x="208" y="60" width="120" height="60" rx="12" fill="#EEF2FF" stroke="#6366F1" stroke-width="2"/>
  <text x="222" y="95" fill="#0F172A" font-family="Inter, sans-serif" font-size="14" font-weight="600">Projects</text>

  <rect x="368" y="60" width="120" height="60" rx="12" fill="#DCFCE7" stroke="#22C55E" stroke-width="2"/>
  <text x="384" y="95" fill="#0F172A" font-family="Inter, sans-serif" font-size="14" font-weight="600">Drawings</text>

  <rect x="528" y="60" width="120" height="60" rx="12" fill="#FFE4E6" stroke="#F43F5E" stroke-width="2"/>
  <text x="546" y="95" fill="#0F172A" font-family="Inter, sans-serif" font-size="14" font-weight="600">Tickets</text>

  <rect x="128" y="160" width="120" height="60" rx="12" fill="#FFF7ED" stroke="#FB923C" stroke-width="2"/>
  <text x="150" y="195" fill="#0F172A" font-family="Inter, sans-serif" font-size="14" font-weight="600">Tasks</text>

  <rect x="288" y="160" width="120" height="60" rx="12" fill="#E2E8F0" stroke="#94A3B8" stroke-width="2"/>
  <text x="304" y="195" fill="#0F172A" font-family="Inter, sans-serif" font-size="14" font-weight="600">Timesheets</text>

  <rect x="448" y="160" width="120" height="60" rx="12" fill="#F0FDFA" stroke="#14B8A6" stroke-width="2"/>
  <text x="460" y="195" fill="#0F172A" font-family="Inter, sans-serif" font-size="14" font-weight="600">Audit & RBAC</text>

  <line x1="168" y1="90" x2="208" y2="90" stroke="#CBD5E1" stroke-width="4" stroke-linecap="round"/>
  <line x1="328" y1="90" x2="368" y2="90" stroke="#CBD5E1" stroke-width="4" stroke-linecap="round"/>
  <line x1="488" y1="90" x2="528" y2="90" stroke="#CBD5E1" stroke-width="4" stroke-linecap="round"/>

  <line x1="108" y1="120" x2="168" y2="160" stroke="#E5E7EB" stroke-width="3" stroke-linecap="round"/>
  <line x1="268" y1="120" x2="328" y2="160" stroke="#E5E7EB" stroke-width="3" stroke-linecap="round"/>
  <line x1="428" y1="120" x2="488" y2="160" stroke="#E5E7EB" stroke-width="3" stroke-linecap="round"/>

  <line x1="188" y1="190" x2="288" y2="190" stroke="#CBD5E1" stroke-width="4" stroke-linecap="round"/>
  <line x1="408" y1="190" x2="448" y2="190" stroke="#CBD5E1" stroke-width="4" stroke-linecap="round"/>

  <circle cx="60" cy="40" r="6" fill="#38BDF8"/>
  <circle cx="80" cy="32" r="5" fill="#6366F1" opacity="0.8"/>
  <circle cx="100" cy="40" r="4" fill="#0EA5E9" opacity="0.8"/>
</svg>

